<?xml version="1.0" encoding="UTF-8" standalone="no"?>
<svg xmlns="http://www.w3.org/2000/svg" viewBox="0 0 600 302" height="302" width="600" xml:space="preserve" version="1.1">
  <g transform="matrix(1.3333333,0,0,-1.3333333,0,302.4)" style="fill:#215483;fill-opacity:1;fill-rule:nonzero;stroke:none">
    <path transform="matrix(0.75000002,0,0,-0.75000002,0,226.80001)" d="M 166.44336 223.41016 C 165.61003 223.41016 164.90039 223.70964 164.31445 224.30859 C 163.72852 224.89453 163.43555 225.60417 163.43555 226.4375 C 163.43555 227.27083 163.72852 227.98047 164.31445 228.56641 C 164.90039 229.15234 165.61003 229.44531 166.44336 229.44531 C 167.27669 229.44531 167.98633 229.15234 168.57227 228.56641 C 169.17123 227.98047 169.4707 227.27083 169.4707 226.4375 C 169.4707 225.60417 169.17773 224.89453 168.5918 224.30859 C 168.00586 223.70964 167.28971 223.41016 166.44336 223.41016 z M 332.00391 223.41016 C 331.17057 223.41016 330.46094 223.70964 329.875 224.30859 C 329.28906 224.89453 328.99609 225.60417 328.99609 226.4375 C 328.99609 227.27083 329.28906 227.98047 329.875 228.56641 C 330.46094 229.15234 331.17057 229.44531 332.00391 229.44531 C 332.83724 229.44531 333.54687 229.15234 334.13281 228.56641 C 334.73177 227.98047 335.03125 227.27083 335.03125 226.4375 C 335.03125 225.60417 334.73828 224.89453 334.15234 224.30859 C 333.56641 223.70964 332.85026 223.41016 332.00391 223.41016 z M 78.501953 224.03516 L 78.501953 224.75781 L 79.341797 224.75781 C 80.083984 224.75781 80.676432 224.88802 81.119141 225.14844 C 81.561848 225.39583 81.854818 225.6888 81.998047 226.02734 C 82.141276 226.35286 82.212891 227.1862 82.212891 228.52734 L 82.212891 245.28516 C 82.212891 246.47005 82.199873 247.13412 82.173828 247.27734 C 82.030599 247.88932 81.828775 248.36458 81.568359 248.70312 C 81.307942 249.04167 80.923828 249.3151 80.416016 249.52344 C 79.908203 249.71875 79.361328 249.8099 78.775391 249.79688 L 78.501953 249.79688 L 78.501953 250.51953 L 87.564453 250.51953 L 87.564453 249.79688 C 86.353515 249.79688 85.461588 249.59505 84.888672 249.19141 C 84.328776 248.77474 83.964193 248.24089 83.794922 247.58984 C 83.72982 247.29036 83.697266 246.48958 83.697266 245.1875 L 83.697266 226.53516 L 94.009766 250.51953 L 94.478516 250.51953 L 104.63477 226.35938 L 104.63477 245.98828 C 104.63477 247.31641 104.56315 248.13672 104.41992 248.44922 C 104.22461 248.89193 103.96419 249.20443 103.63867 249.38672 C 103.16992 249.66016 102.54492 249.79687 101.76367 249.79688 L 100.9043 249.79688 L 100.9043 250.51953 L 114.73242 250.51953 L 114.73242 249.79688 L 113.87305 249.79688 C 113.13086 249.79687 112.53841 249.67318 112.0957 249.42578 C 111.653 249.16537 111.36003 248.86589 111.2168 248.52734 C 111.07357 248.1888 111.00195 247.34245 111.00195 245.98828 L 111.00195 228.52734 C 111.00195 227.21224 111.07357 226.39844 111.2168 226.08594 C 111.41211 225.65625 111.67253 225.35026 111.99805 225.16797 C 112.4668 224.89453 113.0918 224.75781 113.87305 224.75781 L 114.73242 224.75781 L 114.73242 224.03516 L 103.95117 224.03516 L 96.763672 241.49609 L 89.322266 224.03516 L 78.501953 224.03516 z M 138.78906 224.03516 L 138.78906 224.75781 C 139.59636 224.86198 140.1237 225.08333 140.37109 225.42188 C 140.63151 225.76042 140.76172 226.61979 140.76172 228 L 140.76172 246.55469 C 140.76172 247.94792 140.65105 248.78776 140.42969 249.07422 C 140.10417 249.49089 139.55729 249.73828 138.78906 249.81641 L 138.78906 250.51953 L 148.22266 250.51953 L 148.22266 249.81641 C 147.41537 249.72526 146.88151 249.51042 146.62109 249.17188 C 146.36068 248.82031 146.23047 247.94792 146.23047 246.55469 L 146.23047 243.27344 L 147.40234 242.12109 L 151.01562 247.41406 C 151.5625 248.22135 151.83594 248.77474 151.83594 249.07422 C 151.83594 249.25651 151.73828 249.42578 151.54297 249.58203 C 151.36068 249.73828 151.0612 249.81641 150.64453 249.81641 L 150.64453 250.51953 L 160.07812 250.51953 L 160.07812 249.81641 C 159.40104 249.76432 158.84114 249.51693 158.39844 249.07422 C 158.07291 248.76172 157.04427 247.32943 155.3125 244.77734 L 151.01562 238.48828 L 153.00781 236.53516 C 154.71354 234.86849 155.85937 233.8724 156.44531 233.54688 C 157.03125 233.20833 157.71484 233.01953 158.49609 232.98047 L 158.49609 232.25781 L 150.3125 232.25781 L 150.3125 232.98047 C 151.14583 233.08464 151.70573 233.25391 151.99219 233.48828 C 152.27864 233.72266 152.42188 234.01562 152.42188 234.36719 C 152.42188 234.71875 152.31119 235.08333 152.08984 235.46094 C 151.88151 235.83854 151.34114 236.45052 150.46875 237.29688 L 146.23047 241.45703 L 146.23047 224.03516 L 138.78906 224.03516 z M 239.90234 224.03516 L 239.90234 224.75781 C 240.76172 224.8099 241.34115 225.01823 241.64062 225.38281 C 241.9401 225.73438 242.08984 226.54818 242.08984 227.82422 L 242.08984 246.73047 C 242.08984 248.01953 241.95963 248.8138 241.69922 249.11328 C 241.30859 249.55599 240.70963 249.79036 239.90234 249.81641 L 239.90234 250.51953 L 249.76562 250.51953 L 249.76562 249.81641 C 248.89323 249.76432 248.3073 249.5625 248.00781 249.21094 C 247.70834 248.84635 247.55859 248.01953 247.55859 246.73047 L 247.55859 224.03516 L 239.90234 224.03516 z M 319.89062 225.57812 C 319.03125 227.15365 318.02213 228.57943 316.86328 229.85547 C 315.71745 231.13151 314.32422 232.34896 312.68359 233.50781 L 312.68359 234.19141 L 315.06641 234.19141 L 315.06641 244.05469 C 315.06641 246.00781 315.13151 247.20573 315.26172 247.64844 C 315.48307 248.44271 315.99088 249.16536 316.78516 249.81641 C 317.59245 250.45443 318.57552 250.77344 319.73438 250.77344 C 322.10416 250.77344 323.8164 249.52344 324.87109 247.02344 L 324.28516 246.59375 C 323.52995 247.88281 322.72917 248.52734 321.88281 248.52734 C 321.67447 248.52734 321.44661 248.4362 321.19922 248.25391 C 320.95182 248.05859 320.77604 247.8112 320.67188 247.51172 C 320.58074 247.19922 320.53516 246.51562 320.53516 245.46094 L 320.53516 234.19141 L 324.87109 234.19141 L 324.87109 232.25781 L 320.53516 232.25781 L 320.53516 225.57812 L 319.89062 225.57812 z M 498.81055 225.57812 C 497.95117 227.15365 496.94206 228.57943 495.7832 229.85547 C 494.63737 231.13151 493.24414 232.34896 491.60352 233.50781 L 491.60352 234.19141 L 493.98633 234.19141 L 493.98633 244.05469 C 493.98633 246.00781 494.05144 247.20573 494.18164 247.64844 C 494.40299 248.44271 494.9108 249.16536 495.70508 249.81641 C 496.51237 250.45443 497.49544 250.77344 498.6543 250.77344 C 501.02409 250.77344 502.73633 249.52344 503.79102 247.02344 L 503.20508 246.59375 C 502.44987 247.88281 501.64909 248.52734 500.80273 248.52734 C 500.5944 248.52734 500.36654 248.4362 500.11914 248.25391 C 499.87175 248.05859 499.69596 247.8112 499.5918 247.51172 C 499.50065 247.19922 499.45508 246.51562 499.45508 245.46094 L 499.45508 234.19141 L 503.79102 234.19141 L 503.79102 232.25781 L 499.45508 232.25781 L 499.45508 225.57812 L 498.81055 225.57812 z M 126.98828 231.71094 C 125.55599 231.71094 124.17578 231.9388 122.84766 232.39453 C 121.51953 232.85026 120.48438 233.50781 119.74219 234.36719 C 119 235.21354 118.62891 236.10547 118.62891 237.04297 C 118.62891 237.70703 118.90234 238.28646 119.44922 238.78125 C 120.00911 239.27604 120.69922 239.52344 121.51953 239.52344 C 122.28776 239.52344 122.90625 239.30208 123.375 238.85938 C 123.85677 238.40365 124.09766 237.85677 124.09766 237.21875 C 124.09766 236.69792 123.85026 236.15755 123.35547 235.59766 C 122.99089 235.19401 122.80859 234.85547 122.80859 234.58203 C 122.80859 234.26953 122.97786 233.99609 123.31641 233.76172 C 123.86328 233.38411 124.5599 233.19531 125.40625 233.19531 C 125.92708 233.19531 126.39583 233.33203 126.8125 233.60547 C 127.22917 233.86589 127.50912 234.17839 127.65234 234.54297 C 127.80859 234.89453 127.88672 235.76042 127.88672 237.14062 L 127.88672 238.97656 C 123.86328 240.82552 121.2526 242.3099 120.05469 243.42969 C 118.85677 244.53646 118.25781 245.78646 118.25781 247.17969 C 118.25781 248.20833 118.60286 249.06771 119.29297 249.75781 C 119.98307 250.4349 120.84896 250.77344 121.89062 250.77344 C 123.66146 250.77344 125.66016 249.79036 127.88672 247.82422 C 128.01693 248.8138 128.375 249.55599 128.96094 250.05078 C 129.54687 250.53255 130.36068 250.77344 131.40234 250.77344 C 132.28776 250.77344 133.07552 250.55859 133.76562 250.12891 C 134.46874 249.6862 135.14584 248.98307 135.79688 248.01953 L 135.21094 247.55078 C 134.85937 248.03255 134.51432 248.27344 134.17578 248.27344 C 134.00651 248.27344 133.85677 248.22135 133.72656 248.11719 C 133.59631 248.01302 133.49866 247.85677 133.43359 247.64844 C 133.36853 247.42708 133.33594 246.89974 133.33594 246.06641 L 133.33594 238.97656 C 133.33594 237.01042 133.24479 235.75391 133.0625 235.20703 C 132.76302 234.34766 132.10547 233.55338 131.08984 232.82422 C 130.08724 232.08203 128.72005 231.71094 126.98828 231.71094 z M 187.09961 231.71094 C 186.11003 231.71094 185.18554 231.94531 184.32617 232.41406 C 183.46679 232.86979 182.56836 233.60547 181.63086 234.62109 L 181.63086 232.25781 L 174.18945 232.25781 L 174.18945 232.98047 C 174.99674 233.08464 175.52409 233.30599 175.77148 233.64453 C 176.0319 233.98307 176.16211 234.84245 176.16211 236.22266 L 176.16211 246.53516 C 176.16211 247.94141 176.05143 248.78776 175.83008 249.07422 C 175.50455 249.49089 174.95768 249.73828 174.18945 249.81641 L 174.18945 250.51953 L 183.42773 250.51953 L 183.42773 249.81641 C 182.73763 249.72526 182.26237 249.4974 182.00195 249.13281 C 181.75456 248.76823 181.63086 247.90234 181.63086 246.53516 L 181.63086 236.75 C 182.59441 235.14844 183.63607 234.34766 184.75586 234.34766 C 185.0944 234.34766 185.40039 234.45833 185.67383 234.67969 C 185.96028 234.88802 186.16211 235.1875 186.2793 235.57812 C 186.39649 235.96875 186.45508 236.91276 186.45508 238.41016 L 186.45508 246.53516 C 186.45508 247.82422 186.35092 248.63151 186.14258 248.95703 C 185.8431 249.4388 185.34831 249.72526 184.6582 249.81641 L 184.6582 250.51953 L 193.89648 250.51953 L 193.89648 249.81641 C 193.0892 249.72526 192.55534 249.51042 192.29492 249.17188 C 192.04753 248.82031 191.92383 247.94141 191.92383 246.53516 L 191.92383 239.42578 C 191.92383 237.31641 191.81967 235.89063 191.61133 235.14844 C 191.35091 234.17187 190.83007 233.35807 190.04883 232.70703 C 189.26757 232.04297 188.28451 231.71094 187.09961 231.71094 z M 205.37891 231.71094 C 203.08724 231.71094 201.21224 232.36849 199.75391 233.68359 C 198.29558 234.98568 197.56641 236.52865 197.56641 238.3125 C 197.56641 239.67969 197.95704 240.88411 198.73828 241.92578 C 199.51953 242.96745 200.78255 243.80729 202.52734 244.44531 C 201.02995 245.07031 199.9362 245.80599 199.24609 246.65234 C 198.55599 247.4987 198.21094 248.37109 198.21094 249.26953 C 198.21094 250.75391 199.05729 251.91276 200.75 252.74609 C 199.52604 253.07161 198.6862 253.46875 198.23047 253.9375 C 197.78777 254.41927 197.56641 254.95964 197.56641 255.55859 C 197.56641 256.18359 197.85937 256.77604 198.44531 257.33594 C 199.03125 257.90885 200.00131 258.35156 201.35547 258.66406 C 202.70964 258.98958 204.20703 259.15234 205.84766 259.15234 C 208.03516 259.15234 209.96875 258.83333 211.64844 258.19531 C 212.75521 257.76563 213.64713 257.09505 214.32422 256.18359 C 215.00129 255.28516 215.33984 254.28255 215.33984 253.17578 C 215.33984 251.44401 214.60416 250.16146 213.13281 249.32812 C 212.10416 248.72917 210.22265 248.42969 207.48828 248.42969 L 204.10938 248.46875 C 203.30209 248.46875 202.71615 248.31901 202.35156 248.01953 C 202.00001 247.72005 201.82422 247.33594 201.82422 246.86719 C 201.82422 246.33333 202.01953 245.8776 202.41016 245.5 C 202.8138 245.10938 203.30859 244.91406 203.89453 244.91406 C 205.3789 244.97916 206.16015 245.01172 206.23828 245.01172 C 207.20183 245.01172 208.30208 244.74479 209.53906 244.21094 C 210.78906 243.66406 211.77214 242.91536 212.48828 241.96484 C 213.21745 241.0013 213.58203 239.86849 213.58203 238.56641 C 213.58203 237.79818 213.42579 237.0625 213.11328 236.35938 C 212.86589 235.83854 212.42317 235.25911 211.78516 234.62109 L 215.28125 234.62109 L 215.28125 232.47266 L 209.12891 232.47266 C 207.83985 231.96484 206.58985 231.71094 205.37891 231.71094 z M 261.14258 231.71094 C 258.49935 231.71094 256.41602 232.6875 254.89258 234.64062 C 253.38216 236.58073 252.62695 238.85938 252.62695 241.47656 C 252.62695 244.01563 253.36913 246.2487 254.85352 248.17578 C 256.33789 250.10286 258.45378 251.06641 261.20117 251.06641 C 264.00065 251.06641 266.19466 250.01172 267.7832 247.90234 C 269.09831 246.15755 269.75586 243.98958 269.75586 241.39844 C 269.75586 239.60156 269.39778 237.94792 268.68164 236.4375 C 267.97851 234.92708 266.94335 233.76172 265.57617 232.94141 C 264.20898 232.12109 262.73112 231.71094 261.14258 231.71094 z M 282.31836 231.71094 C 279.50586 231.71094 277.29883 232.85026 275.69727 235.12891 C 274.36914 237.01693 273.70508 239.20443 273.70508 241.69141 C 273.70508 244.26953 274.43425 246.47656 275.89258 248.3125 C 277.35092 250.14844 279.29752 251.06641 281.73242 251.06641 C 283.17773 251.06641 284.53841 250.67578 285.81445 249.89453 C 287.10352 249.10026 288.17774 247.89583 289.03711 246.28125 L 288.43164 245.8125 C 287.65039 246.64583 286.97331 247.21224 286.40039 247.51172 C 285.82748 247.8112 285.222 247.96094 284.58398 247.96094 C 283.60742 247.96094 282.76107 247.68099 282.04492 247.12109 C 281.09441 246.35286 280.34571 245.1875 279.79883 243.625 C 279.25196 242.04948 278.97852 240.40234 278.97852 238.68359 C 278.97852 236.61328 279.31706 235.07682 279.99414 234.07422 C 280.43684 233.41016 280.9707 233.07812 281.5957 233.07812 C 281.99935 233.07812 282.35092 233.24089 282.65039 233.56641 C 282.94987 233.89193 283.13866 234.46484 283.2168 235.28516 C 283.33398 236.58724 283.63997 237.49219 284.13477 238 C 284.64258 238.50781 285.2806 238.76172 286.04883 238.76172 C 286.77799 238.76172 287.36393 238.54036 287.80664 238.09766 C 288.26237 237.65495 288.49023 237.0625 288.49023 236.32031 C 288.49023 235.14844 287.93034 234.08724 286.81055 233.13672 C 285.70377 232.1862 284.20638 231.71094 282.31836 231.71094 z M 301.46875 231.71094 C 300.03646 231.71094 298.65625 231.9388 297.32812 232.39453 C 296 232.85026 294.96484 233.50781 294.22266 234.36719 C 293.48047 235.21354 293.10938 236.10547 293.10938 237.04297 C 293.10938 237.70703 293.38282 238.28646 293.92969 238.78125 C 294.48959 239.27604 295.17969 239.52344 296 239.52344 C 296.76823 239.52344 297.38672 239.30208 297.85547 238.85938 C 298.33724 238.40365 298.57812 237.85677 298.57812 237.21875 C 298.57812 236.69792 298.33073 236.15755 297.83594 235.59766 C 297.47135 235.19401 297.28906 234.85547 297.28906 234.58203 C 297.28906 234.26953 297.45833 233.99609 297.79688 233.76172 C 298.34375 233.38411 299.04036 233.19531 299.88672 233.19531 C 300.40755 233.19531 300.8763 233.33203 301.29297 233.60547 C 301.70964 233.86589 301.98958 234.17839 302.13281 234.54297 C 302.28906 234.89453 302.36719 235.76042 302.36719 237.14062 L 302.36719 238.97656 C 298.34375 240.82552 295.73307 242.3099 294.53516 243.42969 C 293.33724 244.53646 292.73828 245.78646 292.73828 247.17969 C 292.73828 248.20833 293.08333 249.06771 293.77344 249.75781 C 294.46354 250.4349 295.32942 250.77344 296.37109 250.77344 C 298.14193 250.77344 300.14063 249.79036 302.36719 247.82422 C 302.49739 248.8138 302.85547 249.55599 303.44141 250.05078 C 304.02734 250.53255 304.84114 250.77344 305.88281 250.77344 C 306.76823 250.77344 307.55599 250.55859 308.24609 250.12891 C 308.94921 249.6862 309.62629 248.98307 310.27734 248.01953 L 309.69141 247.55078 C 309.33984 248.03255 308.99478 248.27344 308.65625 248.27344 C 308.48698 248.27344 308.33724 248.22135 308.20703 248.11719 C 308.07687 248.01302 307.97922 247.85677 307.91406 247.64844 C 307.849 247.42708 307.81641 246.89974 307.81641 246.06641 L 307.81641 238.97656 C 307.81641 237.01042 307.72526 235.75391 307.54297 235.20703 C 307.24349 234.34766 306.58594 233.55338 305.57031 232.82422 C 304.56771 232.08203 303.20052 231.71094 301.46875 231.71094 z M 348.34375 231.71094 C 345.70051 231.71094 343.61718 232.6875 342.09375 234.64062 C 340.58333 236.58073 339.82812 238.85938 339.82812 241.47656 C 339.82812 244.01563 340.57031 246.2487 342.05469 248.17578 C 343.53906 250.10286 345.65495 251.06641 348.40234 251.06641 C 351.20183 251.06641 353.39583 250.01172 354.98438 247.90234 C 356.29948 246.15755 356.95703 243.98958 356.95703 241.39844 C 356.95703 239.60156 356.59896 237.94792 355.88281 236.4375 C 355.17969 234.92708 354.14453 233.76172 352.77734 232.94141 C 351.41016 232.12109 349.93229 231.71094 348.34375 231.71094 z M 373.66016 231.71094 C 372.67057 231.71094 371.7461 231.94531 370.88672 232.41406 C 370.02735 232.86979 369.12891 233.60547 368.19141 234.62109 L 368.19141 232.25781 L 360.75 232.25781 L 360.75 232.98047 C 361.55729 233.08464 362.08464 233.30599 362.33203 233.64453 C 362.59245 233.98307 362.72266 234.84245 362.72266 236.22266 L 362.72266 246.53516 C 362.72266 247.94141 362.61198 248.78776 362.39062 249.07422 C 362.06511 249.49089 361.51822 249.73828 360.75 249.81641 L 360.75 250.51953 L 369.98828 250.51953 L 369.98828 249.81641 C 369.29817 249.72526 368.82292 249.4974 368.5625 249.13281 C 368.3151 248.76823 368.19141 247.90234 368.19141 246.53516 L 368.19141 236.75 C 369.15494 235.14844 370.19661 234.34766 371.31641 234.34766 C 371.65495 234.34766 371.96094 234.45833 372.23438 234.67969 C 372.52083 234.88802 372.72265 235.1875 372.83984 235.57812 C 372.95703 235.96875 373.01562 236.91276 373.01562 238.41016 L 373.01562 246.53516 C 373.01562 247.82422 372.91145 248.63151 372.70312 248.95703 C 372.40364 249.4388 371.90885 249.72526 371.21875 249.81641 L 371.21875 250.51953 L 380.45703 250.51953 L 380.45703 249.81641 C 379.64974 249.72526 379.11589 249.51042 378.85547 249.17188 C 378.60807 248.82031 378.48438 247.94141 378.48438 246.53516 L 378.48438 239.42578 C 378.48437 237.31641 378.38021 235.89063 378.17188 235.14844 C 377.91146 234.17187 377.39062 233.35807 376.60938 232.70703 C 375.82812 232.04297 374.84505 231.71094 373.66016 231.71094 z M 414.75781 231.71094 C 411.94531 231.71094 409.73828 232.85026 408.13672 235.12891 C 406.80859 237.01693 406.14453 239.20443 406.14453 241.69141 C 406.14453 244.26953 406.87369 246.47656 408.33203 248.3125 C 409.79036 250.14844 411.73698 251.06641 414.17188 251.06641 C 415.61718 251.06641 416.97786 250.67578 418.25391 249.89453 C 419.54297 249.10026 420.61719 247.89583 421.47656 246.28125 L 420.87109 245.8125 C 420.08985 246.64583 419.41277 247.21224 418.83984 247.51172 C 418.26693 247.8112 417.66146 247.96094 417.02344 247.96094 C 416.04688 247.96094 415.20053 247.68099 414.48438 247.12109 C 413.53386 246.35286 412.78516 245.1875 412.23828 243.625 C 411.69141 242.04948 411.41797 240.40234 411.41797 238.68359 C 411.41797 236.61328 411.75651 235.07682 412.43359 234.07422 C 412.8763 233.41016 413.41015 233.07812 414.03516 233.07812 C 414.4388 233.07812 414.79037 233.24089 415.08984 233.56641 C 415.38932 233.89193 415.57812 234.46484 415.65625 235.28516 C 415.77344 236.58724 416.07943 237.49219 416.57422 238 C 417.08203 238.50781 417.72006 238.76172 418.48828 238.76172 C 419.21745 238.76172 419.80339 238.54036 420.24609 238.09766 C 420.70183 237.65495 420.92969 237.0625 420.92969 236.32031 C 420.92969 235.14844 420.3698 234.08724 419.25 233.13672 C 418.14323 232.1862 416.64583 231.71094 414.75781 231.71094 z M 433.34375 231.71094 C 430.70052 231.71094 428.61719 232.6875 427.09375 234.64062 C 425.58333 236.58073 424.82812 238.85938 424.82812 241.47656 C 424.82812 244.01563 425.57031 246.2487 427.05469 248.17578 C 428.53906 250.10286 430.65495 251.06641 433.40234 251.06641 C 436.20182 251.06641 438.39583 250.01172 439.98438 247.90234 C 441.29948 246.15755 441.95703 243.98958 441.95703 241.39844 C 441.95703 239.60156 441.59895 237.94792 440.88281 236.4375 C 440.17968 234.92708 439.14453 233.76172 437.77734 232.94141 C 436.41015 232.12109 434.93229 231.71094 433.34375 231.71094 z M 481.89844 231.71094 C 480.90886 231.71094 479.98438 231.94531 479.125 232.41406 C 478.26563 232.86979 477.36719 233.60547 476.42969 234.62109 L 476.42969 232.25781 L 468.98828 232.25781 L 468.98828 232.98047 C 469.79558 233.08464 470.32292 233.30599 470.57031 233.64453 C 470.83073 233.98307 470.96094 234.84245 470.96094 236.22266 L 470.96094 246.53516 C 470.96094 247.94141 470.85027 248.78776 470.62891 249.07422 C 470.30339 249.49089 469.75651 249.73828 468.98828 249.81641 L 468.98828 250.51953 L 478.22656 250.51953 L 478.22656 249.81641 C 477.53646 249.72526 477.0612 249.4974 476.80078 249.13281 C 476.55339 248.76823 476.42969 247.90234 476.42969 246.53516 L 476.42969 236.75 C 477.39323 235.14844 478.43489 234.34766 479.55469 234.34766 C 479.89323 234.34766 480.19923 234.45833 480.47266 234.67969 C 480.75912 234.88802 480.96093 235.1875 481.07812 235.57812 C 481.19531 235.96875 481.25391 236.91276 481.25391 238.41016 L 481.25391 246.53516 C 481.25391 247.82422 481.14974 248.63151 480.94141 248.95703 C 480.64192 249.4388 480.14713 249.72526 479.45703 249.81641 L 479.45703 250.51953 L 488.69531 250.51953 L 488.69531 249.81641 C 487.88801 249.72526 487.35417 249.51042 487.09375 249.17188 C 486.84635 248.82031 486.72266 247.94141 486.72266 246.53516 L 486.72266 239.42578 C 486.72266 237.31641 486.61849 235.89063 486.41016 235.14844 C 486.14974 234.17187 485.62891 233.35807 484.84766 232.70703 C 484.06641 232.04297 483.08334 231.71094 481.89844 231.71094 z M 161.52148 232.25781 L 161.52148 232.98047 C 162.38086 233.03255 162.96028 233.24089 163.25977 233.60547 C 163.55924 233.95703 163.70898 234.77734 163.70898 236.06641 L 163.70898 246.73047 C 163.70898 248.01953 163.57878 248.8138 163.31836 249.11328 C 162.92774 249.55599 162.32878 249.79036 161.52148 249.81641 L 161.52148 250.51953 L 171.38477 250.51953 L 171.38477 249.81641 C 170.51237 249.76432 169.92643 249.5625 169.62695 249.21094 C 169.32747 248.84635 169.17773 248.01953 169.17773 246.73047 L 169.17773 232.25781 L 161.52148 232.25781 z M 327.08203 232.25781 L 327.08203 232.98047 C 327.94141 233.03255 328.52084 233.24089 328.82031 233.60547 C 329.1198 233.95703 329.26953 234.77734 329.26953 236.06641 L 329.26953 246.73047 C 329.26953 248.01953 329.13932 248.8138 328.87891 249.11328 C 328.48828 249.55599 327.88933 249.79036 327.08203 249.81641 L 327.08203 250.51953 L 336.94531 250.51953 L 336.94531 249.81641 C 336.07292 249.76432 335.48698 249.5625 335.1875 249.21094 C 334.88802 248.84635 334.73828 248.01953 334.73828 246.73047 L 334.73828 232.25781 L 327.08203 232.25781 z M 445.61328 232.25781 L 445.61328 232.98047 C 446.42057 233.08464 446.94792 233.30599 447.19531 233.64453 C 447.45573 233.98307 447.58594 234.84245 447.58594 236.22266 L 447.58594 243.46875 C 447.58594 245.57813 447.72265 247.05599 447.99609 247.90234 C 448.26953 248.7487 448.80339 249.49089 449.59766 250.12891 C 450.40495 250.75391 451.32292 251.06641 452.35156 251.06641 C 453.43229 251.06641 454.40885 250.83203 455.28125 250.36328 C 456.15364 249.88151 457.02604 249.11979 457.89844 248.07812 L 457.89844 250.51953 L 465.33984 250.51953 L 465.33984 249.81641 C 464.54558 249.72526 464.01823 249.51042 463.75781 249.17188 C 463.49739 248.82031 463.36719 247.94792 463.36719 246.55469 L 463.36719 232.25781 L 455.92578 232.25781 L 455.92578 232.98047 C 456.73307 233.08464 457.26042 233.30599 457.50781 233.64453 C 457.76823 233.98307 457.89844 234.84245 457.89844 236.22266 L 457.89844 245.98828 C 457.16927 247.01693 456.54427 247.70052 456.02344 248.03906 C 455.64583 248.28646 455.22265 248.41016 454.75391 248.41016 C 454.40234 248.41016 454.08984 248.3125 453.81641 248.11719 C 453.55599 247.92188 453.36068 247.63542 453.23047 247.25781 C 453.11329 246.88021 453.05469 246.04036 453.05469 244.73828 L 453.05469 232.25781 L 445.61328 232.25781 z M 205.75 232.92188 C 206.50521 232.92188 207.09115 233.23438 207.50781 233.85938 C 208.09375 234.70573 208.38672 236.29427 208.38672 238.625 C 208.38672 240.69531 208.1263 242.08854 207.60547 242.80469 C 207.08464 243.52083 206.4336 243.87891 205.65234 243.87891 C 204.94921 243.87891 204.33723 243.52083 203.81641 242.80469 C 203.30859 242.07552 203.05469 240.74089 203.05469 238.80078 C 203.05469 236.40495 203.31511 234.82943 203.83594 234.07422 C 204.35677 233.30599 204.99479 232.92188 205.75 232.92188 z M 261.2207 233.09766 C 261.76757 233.09766 262.21029 233.23438 262.54883 233.50781 C 263.0306 233.88542 263.39518 234.49089 263.64258 235.32422 C 263.88997 236.14453 264.01367 237.66146 264.01367 239.875 C 264.01367 243.63802 263.88346 246.13802 263.62305 247.375 C 263.45378 248.16927 263.11524 248.78776 262.60742 249.23047 C 262.21679 249.55599 261.72852 249.71875 261.14258 249.71875 C 260.54363 249.71875 260.00977 249.47786 259.54102 248.99609 C 259.07227 248.51432 258.76627 247.8112 258.62305 246.88672 C 258.44075 245.67578 258.34961 244.3737 258.34961 242.98047 C 258.34961 240.35026 258.42123 238.29948 258.56445 236.82812 C 258.7207 235.34375 259.03321 234.35417 259.50195 233.85938 C 259.98373 233.35156 260.55664 233.09766 261.2207 233.09766 z M 348.42188 233.09766 C 348.96875 233.09766 349.41146 233.23438 349.75 233.50781 C 350.23177 233.88542 350.59635 234.49089 350.84375 235.32422 C 351.09115 236.14453 351.21484 237.66146 351.21484 239.875 C 351.21484 243.63802 351.08464 246.13802 350.82422 247.375 C 350.65495 248.16927 350.31641 248.78776 349.80859 249.23047 C 349.41797 249.55599 348.92969 249.71875 348.34375 249.71875 C 347.74479 249.71875 347.21093 249.47786 346.74219 248.99609 C 346.27343 248.51432 345.96745 247.8112 345.82422 246.88672 C 345.64193 245.67578 345.55078 244.3737 345.55078 242.98047 C 345.55078 240.35026 345.6224 238.29948 345.76562 236.82812 C 345.92188 235.34375 346.23438 234.35417 346.70312 233.85938 C 347.18489 233.35156 347.75781 233.09766 348.42188 233.09766 z M 433.42188 233.09766 C 433.96875 233.09766 434.41146 233.23438 434.75 233.50781 C 435.23177 233.88542 435.59635 234.49089 435.84375 235.32422 C 436.09115 236.14453 436.21484 237.66146 436.21484 239.875 C 436.21484 243.63802 436.08464 246.13802 435.82422 247.375 C 435.65495 248.16927 435.3164 248.78776 434.80859 249.23047 C 434.41796 249.55599 433.92969 249.71875 433.34375 249.71875 C 432.74479 249.71875 432.21093 249.47786 431.74219 248.99609 C 431.27344 248.51432 430.96745 247.8112 430.82422 246.88672 C 430.64193 245.67578 430.55078 244.3737 430.55078 242.98047 C 430.55078 240.35026 430.6224 238.29948 430.76562 236.82812 C 430.92187 235.34375 431.23438 234.35417 431.70312 233.85938 C 432.1849 233.35156 432.75781 233.09766 433.42188 233.09766 z M 127.88672 240.28516 L 127.88672 246.39844 C 127.02734 247.1276 126.27214 247.49219 125.62109 247.49219 C 125.03516 247.49219 124.57943 247.31641 124.25391 246.96484 C 123.82422 246.50911 123.60938 245.98177 123.60938 245.38281 C 123.60938 244.66667 123.86328 243.95703 124.37109 243.25391 C 125.13932 242.19922 126.3112 241.20964 127.88672 240.28516 z M 302.36719 240.28516 L 302.36719 246.39844 C 301.50781 247.1276 300.7526 247.49219 300.10156 247.49219 C 299.51562 247.49219 299.05989 247.31641 298.73438 246.96484 C 298.30469 246.50911 298.08984 245.98177 298.08984 245.38281 C 298.08984 244.66667 298.34375 243.95703 298.85156 243.25391 C 299.61979 242.19922 300.79167 241.20964 302.36719 240.28516 z M 510.18164 244.50391 C 509.2832 244.50391 508.51497 244.82292 507.87695 245.46094 C 507.25195 246.09896 506.93945 246.86719 506.93945 247.76562 C 506.93945 248.66406 507.25195 249.43229 507.87695 250.07031 C 508.51497 250.69531 509.2832 251.00781 510.18164 251.00781 C 511.08008 251.00781 511.84831 250.69531 512.48633 250.07031 C 513.12435 249.43229 513.44336 248.66406 513.44336 247.76562 C 513.44336 246.86719 513.12435 246.09896 512.48633 245.46094 C 511.86133 244.82292 511.0931 244.50391 510.18164 244.50391 z M 204.59766 253.21484 C 207.67057 253.21484 209.55859 253.28646 210.26172 253.42969 C 210.97786 253.57292 211.51172 253.83984 211.86328 254.23047 C 212.0586 254.45182 212.15625 254.72526 212.15625 255.05078 C 212.15625 255.92318 211.63542 256.60026 210.59375 257.08203 C 209.56511 257.5638 208.14584 257.80469 206.33594 257.80469 C 204.21355 257.80469 202.76823 257.53125 202 256.98438 C 201.23177 256.45052 200.84766 255.85156 200.84766 255.1875 C 200.84766 254.4974 201.21875 253.95052 201.96094 253.54688 C 202.39063 253.32552 203.26953 253.21484 204.59766 253.21484 z " />
    <path d="m 390.5,180.81346 q 3.14648,0 6.13477,-1.61719 2.98828,-1.59961 4.6582,-4.60547 1.6875,-2.98828 1.6875,-6.24023 0,-3.23438 -1.65235,-6.20508 -1.65234,-2.9707 -4.62304,-4.62305 -2.97071,-1.63476 -6.20508,-1.63476 -3.23438,0 -6.20508,1.63476 -2.95312,1.65235 -4.60547,4.62305 -1.65234,2.9707 -1.65234,6.20508 0,3.25195 1.66992,6.24023 1.6875,3.00586 4.67578,4.60547 2.98828,1.61719 6.11719,1.61719 z m 0,-1.56445 q -2.74219,0 -5.36133,-1.40625 -2.60156,-1.40625 -4.07812,-4.04297 -1.45899,-2.61914 -1.45899,-5.44922 0,-2.83008 1.44141,-5.43164 1.4414,-2.58399 4.04297,-4.02539 2.60156,-1.44141 5.41406,-1.44141 2.83008,0 5.41406,1.44141 2.60156,1.4414 4.04297,4.02539 1.44141,2.60156 1.44141,5.43164 0,2.83008 -1.45899,5.44922 -1.45898,2.63672 -4.07812,4.04297 -2.60156,1.40625 -5.36133,1.40625 z m -6.66211,-3.65625 h 6.36328 q 3.2168,0 4.46485,-0.77344 1.77539,-1.10742 1.77539,-3.07617 0,-1.24805 -0.79102,-2.23243 -0.77344,-0.96679 -2.35547,-1.40625 l 2.4082,-4.39453 q 0.52735,-0.94922 1.08985,-1.42382 0.26367,-0.22852 0.75586,-0.31641 v -0.59766 h -4.25391 l -3.60351,6.46875 h -0.8086 v -3.48047 q 0,-1.49414 0.38672,-1.91601 0.4043,-0.42188 1.72266,-0.47461 v -0.59766 h -7.43555 v 0.59766 q 1.08984,0 1.40625,0.36914 0.43945,0.50977 0.43945,2.02148 v 8.29688 q 0,1.44141 -0.3164,1.82812 -0.29883,0.4043 -1.24805,0.50977 z m 5.04492,-6.85547 q 0.59766,-0.0879 1.00196,-0.0879 1.14257,0 1.95117,0.86133 0.82617,0.86132 0.82617,2.30273 0,1.47656 -0.77344,2.23242 -0.75586,0.77344 -2.33789,0.77344 h -0.66797 z" />
    <path transform="matrix(0.75000002,0,0,-0.75000002,0,226.80001)" d="M 290.94141 62.302734 C 270.12789 62.302734 252.85758 69.361794 239.13086 83.480469 C 225.40415 97.599144 218.54102 114.89763 218.54102 135.37305 C 218.54102 146.8152 220.77498 157.15271 225.24414 166.38672 C 228.75562 173.54643 233.60779 180.00328 239.80078 185.75781 C 246.05762 191.44543 253.23933 196.06298 261.34766 199.60938 C 269.51984 203.08886 279.76773 204.82812 292.08984 204.82812 C 301.73047 204.82813 311.02066 203.8238 319.95898 201.81641 C 328.96115 199.87592 337.61223 196.96495 345.91211 193.08398 L 345.91211 164.78125 C 345.91211 159.82968 346.19882 156.71665 346.77344 155.44531 C 347.79495 153.03643 349.23052 151.33182 351.08203 150.32812 C 352.99739 149.25752 356.35028 148.55332 361.13867 148.21875 L 361.13867 144.50586 L 298.02734 144.50586 L 298.02734 148.21875 L 301.37891 148.21875 C 304.50732 148.21875 307.1574 148.8556 309.32812 150.12695 C 311.56271 151.3983 313.03208 152.8355 313.73438 154.44141 C 314.43668 155.98041 314.78711 159.4282 314.78711 164.78125 L 314.78711 193.08398 C 311.33947 194.42225 307.95471 195.45927 304.63477 196.19531 C 301.37867 196.86444 298.18701 197.19922 295.05859 197.19922 C 286.05642 197.19922 278.26746 194.89044 271.69141 190.27344 C 265.1792 185.65643 260.45446 178.42998 257.51758 168.59375 C 254.5807 158.75752 253.11328 147.31564 253.11328 134.26758 C 253.11328 123.49456 254.45326 112.98966 257.13477 102.75195 C 259.81627 92.514238 264.38172 84.550899 270.83008 78.863281 C 277.27844 73.108757 285.35412 70.232422 295.05859 70.232422 C 305.20997 70.232422 314.56389 73.645566 323.11914 80.470703 C 331.67439 87.295841 338.08956 97.265882 342.36719 110.38086 L 345.91211 110.38086 L 345.91211 62.404297 L 342.36719 62.404297 C 341.09028 66.218341 339.68657 68.82724 338.1543 70.232422 C 336.622 71.57068 334.96149 72.240234 333.17383 72.240234 C 332.02462 72.240234 328.28942 71.001177 321.96875 68.525391 C 315.71191 65.982688 311.18028 64.443501 308.37109 63.908203 C 303.19964 62.83759 297.38977 62.302734 290.94141 62.302734 z M 442 62.404297 C 429.61404 62.404297 417.89873 65.6154 406.85352 72.039062 C 395.87214 78.462725 387.12549 87.495783 380.61328 99.138672 C 374.16492 110.78155 370.93945 123.09306 370.93945 136.07422 C 370.93945 148.38624 373.84438 159.9955 379.6543 170.90234 C 385.52805 181.80919 393.8287 190.17465 404.55469 195.99609 C 415.34453 201.81754 427.66708 204.72852 441.52148 204.72852 C 452.05594 204.72852 461.2486 202.9546 469.10156 199.4082 C 477.01836 195.79489 484.61618 190.00759 491.89453 182.04492 L 491.89453 170.30078 C 484.3608 179.46788 477.17909 185.92474 470.34766 189.67188 C 463.58007 193.41901 456.10969 195.29297 447.9375 195.29297 C 437.97765 195.29297 429.86816 192.74946 423.61133 187.66406 C 417.35451 182.51175 412.75915 174.95053 409.82227 164.98047 C 406.88539 154.9435 405.41602 143.8364 405.41602 131.6582 C 405.41602 119.27927 407.42697 108.03748 411.44922 97.933594 C 414.57764 90.037843 419.52539 83.64833 426.29297 78.763672 C 433.06056 73.879005 440.49908 71.4375 448.60742 71.4375 C 458.31189 71.4375 466.99484 74.715944 474.65625 81.273438 C 482.31768 87.830922 487.55215 97.264154 490.36133 109.57617 L 494.09766 109.57617 L 494.09766 62.404297 L 490.36133 62.404297 C 489.91441 65.816866 488.92486 68.32573 487.39258 69.931641 C 485.92413 71.470645 484.16999 72.240234 482.12695 72.240234 C 480.53083 72.240234 476.79563 71.035824 470.92188 68.626953 C 460.77049 64.47834 451.12987 62.404297 442 62.404297 z M 130.19727 63.541016 C 112.59246 63.627277 97.625022 70.00606 85.294922 82.677734 C 72.20666 96.127281 65.662109 112.95629 65.662109 133.16406 C 65.662109 151.1637 70.705431 166.72096 80.792969 179.83594 C 93.562006 196.4304 111.63072 204.72852 134.99805 204.72852 C 158.30154 204.72852 176.33838 196.02828 189.10742 178.63086 C 198.74803 165.51588 203.56836 150.32804 203.56836 133.06445 C 203.56836 112.85668 197.08752 96.027671 184.12695 82.578125 C 171.23023 69.128588 154.43975 62.804471 133.75391 63.607422 C 132.55681 63.557237 131.37092 63.535265 130.19727 63.541016 z M 134.90234 70.03125 C 141.35071 70.03125 147.03314 71.872512 151.94922 75.552734 C 156.92914 79.232957 161.01477 85.55512 164.20703 94.521484 C 167.39929 103.42093 168.99609 116.87146 168.99609 134.87109 C 168.99609 149.99347 167.43114 162.27033 164.30273 171.70508 C 161.17432 181.07292 156.80197 187.8992 151.18359 192.18164 C 146.77828 195.5273 141.28699 197.19922 134.71094 197.19922 C 124.94262 197.19922 117.34481 193.31857 111.91797 185.55664 C 104.12886 174.44906 100.23438 157.28527 100.23438 134.06641 C 100.23437 114.52777 102.75701 99.540007 107.80078 89.101562 C 113.99376 76.388061 123.02714 70.03125 134.90234 70.03125 z " />
  </g>
</svg>